<svg width="169" height="48" viewBox="0 0 169 48" fill="none" xmlns="http://www.w3.org/2000/svg">
<path fill-rule="evenodd" clip-rule="evenodd" d="M7.84375 7.85535H23.3453L23.3441 23.216H7.84375V7.85535Z" fill="#F1511B"/>
<path fill-rule="evenodd" clip-rule="evenodd" d="M24.928 7.85535H40.4295C40.4295 12.9755 40.4304 18.0958 40.4286 23.216C35.2623 23.2151 30.0951 23.216 24.9289 23.216C24.9271 18.0958 24.928 12.9755 24.928 7.85535Z" fill="#80CC28"/>
<path fill-rule="evenodd" clip-rule="evenodd" d="M147.633 13.7081C149.062 12.7866 150.909 12.7005 152.519 13.1397C152.533 14.0883 152.521 15.0376 152.525 15.9865C151.76 15.6528 150.86 15.435 150.055 15.7625C149.416 16.0136 149.036 16.6632 148.936 17.3124C148.816 18.1362 148.894 18.9711 148.874 19.7996C150.509 19.8032 152.144 19.8005 153.779 19.8014C153.791 18.7497 153.766 17.697 153.793 16.6453C154.904 16.3321 156.004 15.9803 157.11 15.6502C157.119 17.0356 157.097 18.4222 157.122 19.8089C158.227 19.7931 159.333 19.8053 160.439 19.8014V22.4993C159.329 22.4537 158.219 22.4868 157.109 22.4832C157.114 24.0343 157.11 25.5852 157.111 27.1366C157.128 27.9955 157.064 28.859 157.166 29.7153C157.227 30.22 157.413 30.7793 157.89 31.0403C158.69 31.4839 159.705 31.2902 160.439 30.8031V33.5272C159.481 33.9396 158.41 34.0653 157.374 33.9923C156.391 33.9202 155.373 33.5662 154.731 32.791C153.99 31.9156 153.799 30.7301 153.784 29.6211C153.776 27.2411 153.785 24.8609 153.781 22.4797C152.145 22.4785 150.509 22.4779 148.874 22.4806C148.872 26.2159 148.873 29.9516 148.873 33.6872H145.52C145.52 29.9522 145.516 26.2189 145.522 22.4844C144.745 22.4695 143.966 22.488 143.189 22.4722C143.192 21.5858 143.195 20.6983 143.187 19.8107C143.961 19.7931 144.736 19.8005 145.511 19.8062C145.568 18.6269 145.387 17.414 145.742 16.2654C146.043 15.2286 146.711 14.293 147.633 13.7081ZM75.8529 13.9018C76.5288 13.8002 77.2604 14.029 77.7084 14.5531C78.2337 15.127 78.3305 16.0402 77.9411 16.7111C77.5109 17.4673 76.5484 17.8189 75.7095 17.6375C74.839 17.4825 74.1138 16.6804 74.1526 15.7866C74.1276 14.8457 74.9217 14.007 75.8529 13.9015V13.9018ZM50.1592 14.3133H55.0351C56.5526 18.132 58.0812 21.9463 59.6009 25.7648C59.9891 26.72 60.3523 27.6857 60.7591 28.6331C62.7114 23.8618 64.6917 19.1025 66.629 14.3243C68.1925 14.2993 69.7563 14.3186 71.3205 14.3151C71.3169 20.7721 71.3187 27.2289 71.3199 33.686C70.1914 33.6833 69.0639 33.6955 67.9363 33.6795C67.9483 28.9147 67.9354 24.1497 67.942 19.3837C67.9438 19.1695 67.9363 18.9553 67.9213 18.7416C67.8551 18.8412 67.7968 18.9445 67.7457 19.0518C65.8078 23.9289 63.8332 28.7926 61.9071 33.6747C61.1046 33.7036 60.3012 33.6768 59.4974 33.6893C57.4988 28.8122 55.5249 23.9235 53.5362 19.0423C53.4839 18.9407 53.4282 18.842 53.3675 18.7473C53.3266 20.8347 53.3612 22.9242 53.3501 25.0122C53.3507 27.9035 53.3483 30.7947 53.3507 33.686C52.2869 33.6887 51.2227 33.686 50.1592 33.6872C50.1583 27.2289 50.1574 20.7709 50.1592 14.3133ZM85.0796 19.7886C86.6972 19.3319 88.4424 19.3503 90.0594 19.8032C90.3929 19.8956 90.7155 20.0237 91.0159 20.1983C90.9969 21.2563 91.0159 22.3155 91.0054 23.3747C89.9241 22.5562 88.553 22.0378 87.1789 22.2094C86.0874 22.3072 85.0468 22.8682 84.3943 23.7418C83.5551 24.8248 83.3615 26.263 83.5061 27.588C83.614 28.6248 84.0467 29.6611 84.8607 30.3484C85.7059 31.0927 86.8909 31.3564 87.9971 31.2735C89.0903 31.149 90.122 30.6902 91.0054 30.0499C91.0147 31.0528 91.0005 32.0557 91.0129 33.0585C89.6421 33.8669 87.9992 34.0751 86.4302 33.9992C84.8252 33.9148 83.2247 33.3124 82.0628 32.1942C80.8003 30.9884 80.115 29.2687 80.0339 27.5465C79.9521 25.7556 80.3198 23.8875 81.3599 22.3921C82.2312 21.116 83.5945 20.2129 85.0796 19.7886ZM121.701 19.5774C123.251 19.3068 124.874 19.5053 126.341 20.0562C126.343 21.0749 126.341 22.092 126.342 23.1098C125.317 22.4114 124.065 22.0357 122.821 22.0792C122.195 22.1034 121.506 22.3664 121.22 22.9567C120.992 23.5407 121.15 24.3064 121.706 24.6562C122.656 25.2863 123.79 25.5539 124.775 26.1182C125.551 26.5502 126.303 27.1145 126.696 27.9285C127.434 29.4525 127.122 31.4666 125.823 32.6033C124.585 33.7507 122.8 34.068 121.158 34.0072C119.993 33.9324 118.822 33.7045 117.75 33.2319C117.755 32.1611 117.743 31.0909 117.755 30.0207C118.657 30.6693 119.696 31.1332 120.797 31.3215C121.563 31.4449 122.397 31.4508 123.111 31.1112C123.794 30.7745 123.917 29.8121 123.511 29.2234C123.131 28.7696 122.573 28.5199 122.048 28.2744C121.06 27.8344 120.022 27.4661 119.154 26.8067C118.544 26.3351 118.082 25.671 117.902 24.9216C117.634 23.8174 117.717 22.5729 118.365 21.6079C119.105 20.4831 120.391 19.8089 121.701 19.5774ZM98.5121 20.0148C99.4373 19.4639 100.613 19.4177 101.624 19.7547C101.619 20.8627 101.624 21.9702 101.621 23.0782C100.96 22.6543 100.135 22.4722 99.3549 22.5509C98.403 22.6578 97.6489 23.3818 97.2583 24.2125C96.8334 25.0915 96.7534 26.0857 96.7802 27.0472C96.7802 29.2603 96.7814 31.4738 96.7802 33.6872H93.4751C93.4724 29.0613 93.479 24.4348 93.4724 19.8089C94.5756 19.7949 95.6791 19.8005 96.7823 19.8059C96.7778 20.6005 96.7823 21.3946 96.7796 22.1901C97.138 21.3257 97.6714 20.4861 98.5121 20.0145V20.0148ZM74.4572 19.8059C75.5688 19.8014 76.6816 19.7907 77.7929 19.8116C77.78 24.4369 77.7923 29.0622 77.7875 33.6872H74.459C74.4562 29.0604 74.4602 24.4336 74.4572 19.8062V19.8059ZM107.793 19.5497C109.402 19.3468 111.099 19.4373 112.593 20.1107C113.889 20.6899 114.939 21.761 115.521 23.0437C116.142 24.4083 116.293 25.9421 116.188 27.4229C116.084 28.8682 115.626 30.3168 114.714 31.4654C113.78 32.6852 112.373 33.5117 110.865 33.8189C109.576 34.0847 108.228 34.0835 106.94 33.8153C105.398 33.4885 103.971 32.6021 103.067 31.3123C102.005 29.8178 101.704 27.9175 101.839 26.1265C101.93 24.607 102.407 23.0756 103.386 21.8838C104.459 20.5487 106.104 19.7609 107.793 19.5497ZM108.793 22.1865C107.992 22.2306 107.182 22.4993 106.588 23.0487C105.768 23.7844 105.394 24.8802 105.293 25.9457C105.181 27.1175 105.262 28.3528 105.802 29.4209C106.222 30.2504 106.994 30.902 107.903 31.1389C108.797 31.3686 109.77 31.3492 110.636 31.0197C111.376 30.734 111.962 30.1303 112.283 29.4164C112.767 28.3573 112.815 27.1664 112.755 26.0234C112.672 24.9785 112.373 23.8839 111.597 23.1292C110.873 22.4031 109.801 22.1209 108.793 22.1865ZM134.515 19.5449C136.188 19.3396 137.964 19.4508 139.491 20.215C140.823 20.8746 141.855 22.0667 142.37 23.4447C142.774 24.4991 142.916 25.6376 142.892 26.7603C142.895 28.4374 142.438 30.1589 141.375 31.4893C140.381 32.7773 138.86 33.6142 137.254 33.877C135.683 34.1288 134.024 34.0635 132.532 33.4813C131.02 32.892 129.763 31.6886 129.126 30.2069C128.462 28.6969 128.392 26.9974 128.599 25.384C128.816 23.7701 129.553 22.1927 130.81 21.1198C131.84 20.2242 133.166 19.7168 134.515 19.5449ZM135.42 22.1892C134.492 22.2407 133.573 22.6367 132.973 23.3524C132.316 24.1193 132.033 25.1311 131.957 26.1173C131.878 27.1357 131.957 28.1904 132.354 29.1423C132.685 29.9414 133.313 30.6359 134.122 30.9756C134.873 31.2959 135.719 31.3528 136.521 31.2339C137.269 31.1249 137.993 30.7709 138.48 30.1896C138.963 29.6113 139.218 28.8822 139.346 28.1517C139.509 27.1708 139.511 26.1608 139.319 25.1847C139.149 24.3526 138.777 23.5261 138.106 22.9743C137.378 22.3405 136.367 22.1239 135.42 22.1892Z" fill="#282C4B"/>
<path fill-rule="evenodd" clip-rule="evenodd" d="M7.84375 24.7834C13.0109 24.7852 18.1781 24.7829 23.3453 24.7852C23.3462 29.9054 23.3453 35.0248 23.3453 40.145H7.84375V24.7834Z" fill="#00ADEF"/>
<path fill-rule="evenodd" clip-rule="evenodd" d="M24.9296 24.7852C30.0959 24.7834 35.2631 24.7843 40.4302 24.7843V40.145H24.9287C24.9296 35.0247 24.9278 29.9045 24.9296 24.7852Z" fill="#FBBC09"/>
</svg>
