<svg width="176" height="37" viewBox="0 0 176 37" fill="none" xmlns="http://www.w3.org/2000/svg">
<g clip-path="url(#clip0_7_104)">
<path d="M168.159 29.3537C168.822 29.3537 169.213 29.2454 169.459 29.0268C169.65 28.8272 169.746 28.3637 169.746 27.6092V12.149C169.746 11.3579 169.659 10.833 169.495 10.5712C169.276 10.2393 168.814 10.0733 168.112 10.0733H167.577V8.95766L173.796 8.47585V27.6172C173.796 28.5999 174.059 29.1541 174.587 29.2725C174.796 29.3266 175.106 29.3537 175.505 29.3537V30.5549H168.159V29.3537ZM158.402 23.7891C158.975 23.3029 160.002 22.9169 161.486 22.6244V24.8258C161.486 26.0717 161.294 27.017 160.922 27.6626C160.441 28.5268 159.813 28.9537 159.03 28.9537C158.567 28.9537 158.176 28.7549 157.858 28.3454C157.539 27.9353 157.377 27.3445 157.377 26.563C157.376 25.2894 157.722 24.3711 158.402 23.7891ZM155.762 17.9043C155.884 17.579 156.203 17.2675 156.722 16.9722C157.318 16.6363 157.992 16.461 158.677 16.4633C160.55 16.4633 161.486 17.3202 161.486 19.0383V21.402C158.713 21.9423 156.73 22.566 155.522 23.2708C153.949 24.1795 153.158 25.4531 153.158 27.0901C153.158 28.0537 153.453 28.8996 154.049 29.6176C154.827 30.5461 155.978 31.0082 157.505 31.0082C158.374 31.0082 159.205 30.7625 159.996 30.2624C160.733 29.8069 161.287 29.2257 161.66 28.5158V29.2433C161.681 29.8618 161.681 30.307 161.66 30.5527H167.037V29.3522H166.832C165.969 29.3522 165.537 28.76 165.537 27.5697V20.3975C165.537 16.9363 163.577 15.2036 159.669 15.2036C158.087 15.2036 156.76 15.5377 155.682 16.206C154.604 16.872 154.068 17.7442 154.068 18.8292C154.068 19.5764 154.313 20.1679 154.814 20.5978C155.231 20.9555 155.765 21.1486 156.314 21.141C156.946 21.141 157.469 20.9429 157.887 20.5473C158.31 20.1562 158.522 19.7139 158.522 19.2299C158.522 18.0301 157.881 17.4277 156.614 17.4277C156.132 17.4277 155.742 17.5819 155.449 17.8868L155.764 18.0089C155.767 17.9409 155.767 17.9043 155.762 17.9043ZM51.6804 21.3055C54.1311 21.3055 56.0897 20.8259 57.5629 19.8732C59.227 18.808 60.0546 17.2346 60.0546 15.1451C60.0546 12.9744 59.2138 11.3579 57.5315 10.2919C56.1 9.38024 54.1632 8.92329 51.7169 8.92329H43.5701V10.1033C44.5381 10.1033 45.1383 10.1735 45.3701 10.308C45.7656 10.531 45.9652 11.1379 45.9652 12.1336V27.5083C45.9652 28.2621 45.8014 28.7724 45.4695 29.0356C45.1968 29.2447 44.688 29.3449 43.9371 29.3449H43.5693V30.5461H53.2625V29.3449H52.2536C51.4764 29.3449 50.9485 29.2264 50.667 28.972C50.3856 28.7264 50.2444 28.2445 50.2444 27.5083V21.3055H51.6804ZM55.6079 15.1612C55.6079 18.3437 54.308 19.9347 51.7162 19.9347H50.3527V10.1808H51.7162C54.308 10.1808 55.6079 11.8426 55.6079 15.1612ZM66.223 18.5185C66.7867 16.3069 67.9821 15.1999 69.8187 15.1999C70.4913 15.1999 71.0279 15.382 71.433 15.7497C71.8373 16.1175 72.042 16.6022 72.042 17.2091C72.0453 17.7267 71.8629 18.2283 71.528 18.623C71.1369 19.0778 70.6463 19.3088 70.0548 19.3088C69.4911 19.3088 69.0415 19.1341 68.7096 18.789C68.3915 18.4863 68.2504 18.1142 68.2775 17.6726C68.2775 17.6316 68.3001 17.5271 68.3367 17.3611C67.7818 18.0593 67.346 19.2547 67.0185 20.937C66.7546 22.2852 66.6186 23.5215 66.6186 24.6357V27.6085C66.6186 28.3082 66.7005 28.7629 66.8547 28.972C67.0455 29.2264 67.5639 29.3449 68.4003 29.3449H68.9048V30.5461H60.7499V29.3449H61.0548C61.6141 29.3449 62.0184 29.2447 62.264 29.0451C62.509 28.8536 62.6274 28.363 62.6274 27.6085V21.1257C62.6274 18.8914 62.5682 17.6477 62.4454 17.3999C62.2728 16.9978 61.9365 16.7974 61.4364 16.7974H61.0094V15.5999H66.1192L66.223 18.5185ZM83.1477 28.1627C83.0841 28.1999 83.0205 28.2541 82.9386 28.3001L83.1477 28.1824C82.8933 28.8821 82.4246 29.5094 81.7337 30.046C80.951 30.672 79.9767 31.0096 78.9745 31.0023C77.2468 31.0023 76.0288 30.5293 75.3196 29.5745C74.7559 28.828 74.4693 27.656 74.4693 26.0644V19.8031C74.4693 18.3935 74.4057 17.571 74.2829 17.3348C74.1103 17.019 73.7053 16.8552 73.0604 16.8552H72.9332V15.6028H78.5797V26.5922C78.5797 28.0464 79.1843 28.7746 80.3936 28.7746C81.3937 28.7746 82.0707 28.0837 82.421 26.6741C82.5752 26.1104 82.6483 25.3376 82.6483 24.355V19.8089C82.6483 18.2538 82.576 17.397 82.4253 17.231C82.2075 16.9831 81.7527 16.8537 81.0567 16.8537H80.6297V15.6013H86.7945V26.8181C86.7945 28.0457 86.8676 28.7636 87.0175 28.9552C87.2083 29.2184 87.5768 29.3456 88.1178 29.3456H88.5039V30.5461H83.0307L82.9393 28.1371L83.0307 28.1999L83.0578 28.265L83.1477 28.1627ZM95.2725 15.2584C93.2583 15.2584 91.6316 16.1226 90.3945 17.8429C89.3037 19.3754 88.7583 21.1257 88.7583 23.0982C88.7583 25.2623 89.1582 27.017 89.9763 28.3725C91.0131 30.1264 92.6171 31.0001 94.7959 31.0001C95.9137 31.0001 96.8861 30.6543 97.7145 29.9634C98.3601 29.4092 98.7826 28.7995 98.9786 28.1356L98.874 28.2175L98.7512 28.0998L98.8558 30.5461H104.216V29.3624H103.947C103.334 29.3624 102.928 29.1987 102.734 28.8806C102.579 28.6532 102.506 28.2263 102.506 27.6165V8.46927L96.2325 8.94888V10.0675H96.6419C97.433 10.0675 97.9419 10.2832 98.1751 10.7109C98.3118 10.9631 98.3937 11.5334 98.4207 12.4246C98.4207 14.8293 98.4617 16.2359 98.5436 16.6366C97.9623 15.7154 96.8671 15.2584 95.2725 15.2584ZM98.4536 21.4802V24.5085C98.4536 25.3354 98.3908 26.0263 98.2679 26.5717C97.8951 28.227 97.104 29.0627 95.9042 29.0627C94.2219 29.0627 93.3768 27.0711 93.3768 23.0982C93.3768 21.3304 93.4777 20.0275 93.667 19.1838C94.0523 17.5541 94.8207 16.7389 95.9671 16.7389C97.6231 16.7382 98.4536 18.3204 98.4536 21.4802ZM108.782 22.7305H117.879C117.865 20.483 117.361 18.7093 116.37 17.4138C115.253 15.9384 113.597 15.1999 111.406 15.1999C109.392 15.1999 107.724 15.9252 106.396 17.3728C105.059 18.8643 104.396 20.7645 104.396 23.0712C104.396 25.4444 104.978 27.3263 106.15 28.7183C107.405 30.2463 109.191 31.0001 111.505 31.0001C113.3 31.0001 114.814 30.337 116.041 29.0181C117.115 27.8629 117.673 26.6266 117.715 25.2996H116.202C116.187 26.2808 115.815 27.2005 115.084 28.0552C114.255 29.0371 113.27 29.5189 112.119 29.5189C110.478 29.5189 109.442 28.3462 109.015 26C108.861 25.217 108.782 24.1349 108.782 22.7305ZM111.362 16.3405C112.933 16.3405 113.725 18.052 113.725 21.4751H108.782C108.797 20.9414 108.819 20.4976 108.846 20.1416C109.055 17.609 109.893 16.3405 111.362 16.3405ZM123.794 17.5454C124.136 16.8523 124.681 16.2908 125.425 15.8543C126.172 15.4178 126.998 15.1992 127.912 15.1992C130.908 15.1992 132.407 16.8267 132.407 20.0838V26.8905C132.407 27.6443 132.413 28.0983 132.425 28.254C132.479 28.9808 132.943 29.3441 133.802 29.3441H134.116V30.5446H128.297V19.5596C128.297 18.8 128.207 18.2546 128.024 17.9226C127.762 17.4386 127.266 17.1952 126.534 17.1952C125.844 17.1952 125.289 17.5315 124.87 18.2092C124.458 18.8892 124.247 19.8886 124.247 21.2119V26.8445C124.247 28.1086 124.306 28.817 124.433 28.9537C124.683 29.2177 125.128 29.3449 125.765 29.3449H126.015V30.5461H118.433V29.3449H118.838C119.611 29.3449 120.025 28.9822 120.084 28.254C120.111 28.0822 120.125 27.5902 120.125 26.7808V19.3044C120.125 18.1427 120.038 17.4357 119.866 17.1813C119.698 16.9246 119.334 16.7974 118.78 16.7974H118.435V15.5999H123.794V17.5454ZM139.757 30.9994C137.27 30.9994 136.02 29.5891 136.02 26.7713V16.8523H133.347V15.654H133.757C135.221 15.654 136.456 14.8315 137.476 13.1762C138.348 11.7878 138.795 10.3665 138.822 8.92329H140.076V15.654H142.93V16.8523H140.076V27.2714C140.076 28.4997 140.455 29.1175 141.213 29.1175C141.881 29.1175 142.314 28.5348 142.509 27.3709C142.577 26.9527 142.613 26.1155 142.613 24.8704H144.013C144.013 26.9263 143.827 28.3337 143.458 29.0707C142.838 30.3626 141.601 30.9994 139.757 30.9994ZM18.7398 1.17929C8.20882 1.17929 1.329 9.835 1.329 17.8926C1.329 22.5206 2.45638 24.8251 3.6927 27.0338C5.25217 22.8438 8.36893 14.5076 8.36893 14.5076C8.36893 14.5076 9.82093 13.7574 9.82093 13.8671L11.9141 8.54604L13.2601 7.84782L14.9285 4.2997L18.5768 4.89118L25.9955 9.02784L34.3236 11.3404C32.1778 5.85991 26.1044 1.17929 18.7398 1.17929ZM18.6302 36.8637C14.0636 36.8637 8.47641 35.2545 4.44429 30.3085H32.7685C29.4865 34.5548 23.8489 36.8637 18.6302 36.8637ZM24.2225 29.4538H21.6402L26.4319 23.485L26.9137 24.3981L24.2225 29.4538ZM26.75 10.4784L18.5307 5.69833L15.5193 5.1595V7.36236L17.8311 9.51477L14.6054 9.24206C14.6054 9.24206 14.7099 9.40583 17.3946 12.2535L29.6503 14.2948L31.7961 15.6927L26.2133 15.961L23.9037 24.3981L16.3235 29.4538H11.3775L13.0459 26.1718L12.7754 26.0636L8.31337 29.4553H7.24082L11.8074 23.0536C12.0231 21.2287 11.9141 22.0344 12.1846 18.7539L11.4864 17.7888L9.65862 24.8807L5.84219 29.4545H4.87346L7.13042 26.28L10.3013 16.5547L9.49412 16.9276L8.09622 20.7981L7.13042 21.334C7.13042 21.334 4.87346 26.8167 3.69124 29.4984C1.97384 27.036 0.0371094 23.7028 0.0371094 17.8934C0.0371094 9.18723 7.5084 0 18.7398 0C29.5414 0 35.2967 8.59868 36.2604 13.0563L26.75 10.4784ZM32.0689 23.0529L30.505 24.3981L27.3955 29.4538H25.3499L27.3955 25.8436L29.0047 24.5071L31.3231 18.0038L33.787 19.0244L32.0689 23.0529ZM33.523 29.4538H29.3864L33.3052 23.2708L34.4874 19.2386L36.96 20.0999C36.7422 23.2166 35.7237 26.3809 33.523 29.4538ZM28.4681 22.0344L27.2318 22.2538L27.5593 19.7775L27.2318 19.2935L27.5593 16.4977L30.7236 17.7888L28.4681 22.0344ZM145.006 29.3537H145.402C145.992 29.3537 146.365 29.1621 146.514 28.7995C146.61 28.5355 146.655 27.8804 146.655 26.8262V19.0113C146.655 17.9519 146.554 17.3312 146.335 17.1425C146.127 16.9561 145.813 16.8632 145.4 16.8632H145.005V15.6649H150.71V26.8254C150.71 28.0537 150.783 28.7717 150.938 28.98C151.129 29.2345 151.483 29.3529 152.019 29.3529H152.429V30.5541H145.006V29.3537ZM146.093 11.4786C146.093 10.8037 146.329 10.2327 146.808 9.7575C147.032 9.52791 147.301 9.34644 147.598 9.22413C147.895 9.10183 148.213 9.04127 148.535 9.04612C148.857 9.04146 149.177 9.10208 149.475 9.22433C149.774 9.34658 150.044 9.52795 150.271 9.7575C150.758 10.2327 150.999 10.803 150.999 11.4786C150.999 12.1556 150.758 12.7353 150.271 13.2193C149.79 13.7099 149.212 13.9534 148.535 13.9534C147.857 13.9534 147.285 13.7099 146.808 13.2193C146.577 12.9929 146.394 12.7217 146.271 12.4225C146.148 12.1232 146.087 11.802 146.093 11.4786Z" fill="#B7C0CC"/>
</g>
<defs>
<clipPath id="clip0_7_104">
<rect width="175.541" height="36.8637" fill="white"/>
</clipPath>
</defs>
</svg>
