<svg width="163" height="32" viewBox="0 0 163 32" fill="none" xmlns="http://www.w3.org/2000/svg">
<path d="M10.326 31.5068H4.18405V15.9761H0V10.9196H4.18388V7.32158C4.18388 3.05789 6.03442 0 12.1598 0C13.4553 0 15.4892 0.264869 15.4892 0.264869V4.96009H13.353C11.1763 4.96009 10.3264 5.63168 10.3264 7.48841V10.9196H15.4077L14.9552 15.9761H10.3262L10.326 31.5068ZM24.419 10.5155C24.3295 10.5155 24.2374 10.5189 24.1463 10.5212C18.4511 10.5212 15.8454 14.8665 15.8454 21.0349C15.8454 28.8054 19.2254 31.9153 24.1908 31.9153C27.0318 31.9153 28.8983 30.7024 30.0328 28.439V31.5089H35.8747V10.9218H30.0328V14.0878C29.1064 12.0509 27.1877 10.5397 24.419 10.5155ZM25.9044 15.3802C28.2965 15.3802 29.7322 17.0726 29.7322 19.9513L29.7377 22.8915C29.7377 24.8317 28.5519 27.1016 25.9044 27.1016C21.8343 27.1016 21.9431 22.6438 21.9431 21.1591C21.9431 16.1648 24.1116 15.3802 25.9044 15.3802ZM38.2339 21.2164C38.2339 18.7147 38.1159 10.5289 48.6301 10.5289C52.8506 10.5289 54.613 11.8902 54.613 11.8902L53.1965 16.3465C53.1965 16.3465 51.4364 15.3634 49.143 15.3634C46.2056 15.3634 44.3313 17.0906 44.3313 20.1297L44.3345 22.3088C44.3345 25.229 46.143 27.1783 49.1491 27.1783C51.2384 27.1783 53.1641 26.186 53.1641 26.186L54.577 30.5492C54.577 30.5492 52.9655 31.919 48.6596 31.919C38.6484 31.919 38.2341 24.5747 38.2341 21.2164H38.2339ZM88.8663 10.5212C94.5617 10.5212 97.2085 14.8665 97.2085 21.0349C97.2085 28.8054 93.8283 31.9153 88.8629 31.9153C86.0219 31.9153 83.9219 30.7026 82.7874 28.439V31.5089L77.019 31.5066V0.625963L83.1435 0.0841561V13.8089C84.0275 11.4077 86.9325 10.5212 88.8665 10.5212H88.8663ZM87.1493 15.3802C84.7572 15.3802 83.1435 17.0726 83.1435 19.9513L83.1378 22.8915C83.1342 24.8317 84.2554 27.1016 87.1493 27.1016C91.2194 27.1016 91.1106 22.6438 91.1106 21.1591C91.1106 16.1648 88.9423 15.3802 87.1493 15.3802ZM65.2396 10.5382C58.7799 10.5382 55.3696 14.1106 55.3696 20.4592V21.6387C55.3696 29.8786 60.1587 32 65.8683 32C71.418 32 73.93 30.4255 73.93 30.4255L72.7839 26.2326C72.7839 26.2326 69.829 27.5078 66.6026 27.5078C63.2579 27.5078 61.8194 26.6431 61.4507 23.3827H74.4196V20.0189C74.4196 13.1323 70.5922 10.538 65.2394 10.538L65.2396 10.5382ZM65.3953 14.7367C67.6313 14.7367 69.0802 16.1276 69.0007 19.3531H61.4619C61.5926 15.9583 63.1552 14.7369 65.3953 14.7369V14.7367ZM109.421 10.5099C102.787 10.5099 99.2947 14.3017 99.2947 21.0969C99.2947 30.4202 105.315 31.921 109.432 31.921C115.459 31.921 119.469 28.6296 119.469 21.1816C119.469 13.4294 114.96 10.5099 109.421 10.5099ZM109.337 15.3971C112.254 15.3971 113.41 17.6114 113.41 20.132V22.2991C113.41 25.3525 111.793 27.1186 109.326 27.1186C107.019 27.1186 105.398 25.4666 105.398 22.2991V20.132C105.398 16.7539 107.327 15.3971 109.337 15.3971ZM131.67 10.5099C125.036 10.5099 121.544 14.3017 121.544 21.0969C121.544 30.4202 127.564 31.921 131.681 31.921C137.708 31.921 141.718 28.6296 141.718 21.1816C141.718 13.4294 137.209 10.5099 131.67 10.5099ZM131.586 15.3971C134.503 15.3971 135.659 17.6114 135.659 20.132V22.2991C135.659 25.3525 134.042 27.1186 131.575 27.1186C129.268 27.1186 127.647 25.4666 127.647 22.2991V20.132C127.647 16.7539 129.576 15.3971 131.586 15.3971ZM144.032 31.5068V0.625963L150.174 0.0843215V20.7826L156.268 10.9198H162.755L156.398 21.1348L163 31.5068H156.495L150.174 21.4355V31.5068H144.032Z" fill="#4285F4"/>
</svg>
