<svg width="142" height="43" viewBox="0 0 142 43" fill="none" xmlns="http://www.w3.org/2000/svg">
<path fill-rule="evenodd" clip-rule="evenodd" d="M88.0583 33.4513C79.8099 39.5312 67.8542 42.775 57.5606 42.775C43.1271 42.775 30.1334 37.4365 20.3031 28.5579C19.5309 27.8595 20.2229 26.9081 21.1496 27.4519C31.7584 33.6244 44.8757 37.3377 58.4256 37.3377C67.5638 37.3377 77.6165 35.4471 86.8598 31.5236C88.2561 30.9304 89.4238 32.438 88.0583 33.4513Z" fill="#979795"/>
<path fill-rule="evenodd" clip-rule="evenodd" d="M91.4876 29.5278C90.4373 28.1808 84.518 28.8914 81.8611 29.2065C81.0517 29.3054 80.9282 28.601 81.6573 28.0944C86.3716 24.7765 94.1073 25.7341 95.0094 26.8463C95.9114 27.9646 94.7746 35.7188 90.3444 39.4198C89.6648 39.9883 89.016 39.6855 89.3188 38.9317C90.3136 36.448 92.5441 30.881 91.4876 29.5278Z" fill="#979795"/>
<path fill-rule="evenodd" clip-rule="evenodd" d="M82.0465 4.67105V1.44583C82.0465 0.957686 82.4172 0.630225 82.8621 0.630225H97.3016C97.7651 0.630225 98.1358 0.96379 98.1358 1.44583V4.2076C98.1296 4.67105 97.7404 5.27657 97.0484 6.23426L89.566 16.9171C92.3464 16.8493 95.2812 17.2632 97.8021 18.6843C98.3706 19.0055 98.525 19.4752 98.5683 19.9385V23.3801C98.5683 23.8496 98.0492 24.3995 97.5056 24.1153C93.0631 21.7861 87.1625 21.5327 82.2505 24.14C81.75 24.412 81.2248 23.8682 81.2248 23.3987V20.1302C81.2248 19.605 81.2309 18.709 81.7561 17.912L90.4248 5.48054H82.8805C82.4172 5.48054 82.0465 5.15308 82.0465 4.67105ZM29.3735 24.795H24.9803C24.5602 24.7642 24.2266 24.449 24.1957 24.0473V1.50147C24.1957 1.05037 24.5725 0.69197 25.0421 0.69197H29.1385C29.5649 0.710423 29.9047 1.03803 29.9357 1.44569V4.39312H30.016C31.0849 1.54476 33.0929 0.216462 35.7992 0.216462C38.5486 0.216462 40.2664 1.54476 41.5022 4.39312C42.5649 1.54476 44.9807 0.216462 47.5696 0.216462C49.4108 0.216462 51.4251 0.976423 52.6546 2.68172C54.0448 4.5785 53.7606 7.33417 53.7606 9.75004L53.7544 23.9795C53.7544 24.4306 53.3775 24.7951 52.908 24.7951H48.5211C48.0825 24.7643 47.7302 24.4121 47.7302 23.9795V12.0299C47.7302 11.0783 47.8168 8.70562 47.6067 7.80372C47.2792 6.2899 46.2968 5.8635 45.0239 5.8635C43.9612 5.8635 42.8491 6.57407 42.398 7.71103C41.947 8.84799 41.9903 10.7509 41.9903 12.0299V23.9793C41.9903 24.4304 41.6133 24.795 41.1438 24.795H36.7569C36.312 24.7642 35.966 24.412 35.966 23.9793L35.9599 12.0299C35.9599 9.51512 36.3738 5.81425 33.2536 5.81425C30.0964 5.81425 30.2199 9.42243 30.2199 12.0299V23.9793C30.2199 24.4304 29.843 24.795 29.3735 24.795ZM110.567 0.21632C117.086 0.21632 120.614 5.81411 120.614 12.932C120.614 19.8088 116.715 25.2646 110.567 25.2646C104.166 25.2646 100.681 19.6667 100.681 12.6909C100.681 5.67202 104.209 0.21632 110.567 0.21632ZM110.604 4.81938C107.367 4.81938 107.163 9.23095 107.163 11.9804C107.163 14.7362 107.12 20.6182 110.567 20.6182C113.972 20.6182 114.132 15.873 114.132 12.9814C114.132 11.0783 114.052 8.80455 113.477 7.00047C112.983 5.43101 112.001 4.81938 110.604 4.81938M129.066 24.795H124.692C124.253 24.7642 123.901 24.412 123.901 23.9793L123.895 1.42723C123.932 1.01333 124.296 0.69197 124.741 0.69197H128.813C129.196 0.710423 129.511 0.970177 129.598 1.32219V4.76998H129.678C130.908 1.68685 132.631 0.21632 135.665 0.21632C137.636 0.21632 139.558 0.926743 140.793 2.87306C141.943 4.67715 141.943 7.71103 141.943 9.89212V24.0844C141.893 24.4798 141.529 24.795 141.096 24.795H136.691C136.289 24.7642 135.955 24.4675 135.912 24.0844V11.8383C135.912 9.37304 136.196 5.76457 133.163 5.76457C132.094 5.76457 131.111 6.48138 130.623 7.5688C130.005 8.94678 129.925 10.3184 129.925 11.8384V23.9793C129.919 24.4304 129.536 24.795 129.066 24.795ZM70.5357 14.0256C70.5357 15.737 70.5789 17.1644 69.7138 18.6842C69.0157 19.9201 67.9036 20.6799 66.674 20.6799C64.9873 20.6799 63.9986 19.3949 63.9986 17.498C63.9986 13.7537 67.3537 13.074 70.5357 13.074V14.0256ZM74.9657 24.7332C74.6754 24.9927 74.2553 25.0113 73.9278 24.8382C72.4696 23.6272 72.2039 23.065 71.4069 21.9095C68.9971 24.3687 67.2857 25.104 64.1654 25.104C60.4644 25.104 57.5914 22.8239 57.5914 18.2581C57.5914 14.6929 59.5191 12.2647 62.2747 11.0783C64.6598 10.028 67.9901 9.84258 70.5358 9.55217V8.98383C70.5358 7.93956 70.616 6.70381 69.9981 5.80176C69.4668 4.9924 68.441 4.6587 67.5329 4.6587C65.8584 4.6587 64.3694 5.51745 64.0049 7.29698C63.9306 7.69244 63.6402 8.08164 63.2387 8.10024L58.9815 7.64304C58.6233 7.5627 58.2216 7.27229 58.3266 6.7224C59.3029 1.55711 63.9739 0 68.1509 0C70.2887 0 73.0814 0.56848 74.7682 2.18733C76.9059 4.18305 76.7021 6.84589 76.7021 9.74379V16.5897C76.7021 18.6473 77.5549 19.5492 78.358 20.6614C78.6362 21.0569 78.6978 21.5327 78.3395 21.8292C77.4436 22.5768 75.8494 23.967 74.9721 24.7456L74.966 24.7332M12.9443 14.0256C12.9443 15.737 12.9876 17.1644 12.1225 18.6842C11.4244 19.9201 10.3184 20.6799 9.08262 20.6799C7.39592 20.6799 6.41339 19.3949 6.41339 17.498C6.41339 13.7537 9.76849 13.074 12.9443 13.074V14.0256ZM17.3743 24.7332C17.0841 24.9927 16.6639 25.0113 16.3365 24.8382C14.8783 23.6272 14.6187 23.065 13.8156 21.9095C11.4058 24.3687 9.70064 25.104 6.57407 25.104C2.8793 25.104 0 22.8239 0 18.2581C0 14.6929 1.93397 12.2647 4.68339 11.0783C7.06846 10.028 10.3987 9.84258 12.9443 9.55217V8.98383C12.9443 7.93956 13.0246 6.70381 12.4129 5.80176C11.8753 4.9924 10.8498 4.6587 9.94762 4.6587C8.27326 4.6587 6.77804 5.51745 6.41339 7.29698C6.3393 7.69244 6.04888 8.08164 5.65343 8.10024L1.39019 7.64304C1.03178 7.5627 0.63647 7.27229 0.735262 6.7224C1.71765 1.55711 6.38259 0 10.5594 0C12.697 0 15.4899 0.56848 17.1768 2.18733C19.3144 4.18305 19.1106 6.84589 19.1106 9.74379V16.5897C19.1106 18.6473 19.9632 19.5492 20.7665 20.6614C21.0508 21.0569 21.1125 21.5327 20.7541 21.8292C19.8582 22.5768 18.2642 23.967 17.3868 24.7456L17.3745 24.7332" fill="#979795"/>
</svg>
