<svg width="159" height="33" viewBox="0 0 159 33" fill="none" xmlns="http://www.w3.org/2000/svg">
<g clip-path="url(#clip0_7_118)">
<path d="M46.8299 7.43174C44.8995 6.46658 42.8727 6.08052 40.6528 6.08052C38.5295 6.08052 36.5991 6.46658 34.7653 7.23871C32.9315 8.01084 31.3873 8.976 29.9395 10.3272C28.5883 11.6785 27.5266 13.2227 26.7545 14.96C25.9824 16.6973 25.5963 18.5311 25.5963 20.3649C25.5963 22.8743 26.1754 24.9977 27.3336 26.928C28.4918 28.8583 30.1326 30.3061 32.1594 31.3677C34.1862 32.4294 36.3096 32.912 38.7225 32.912C40.7493 32.912 42.5831 32.5259 44.3204 31.8494C46.0577 31.1747 47.602 30.1121 48.9532 28.8574C50.3044 27.6027 51.2696 26.0584 52.0417 24.2246C52.8139 22.3908 53.1999 20.557 53.1999 18.4336C53.1999 15.7312 52.6208 13.4148 51.4626 11.581C50.3044 9.74813 48.7602 8.3969 46.8299 7.43174ZM43.9344 21.7161C43.4518 22.8743 42.7762 23.743 41.9075 24.5151C41.0389 25.1907 40.0737 25.5768 38.9155 25.5768C37.5643 25.5768 36.4061 25.0942 35.634 24.129C34.7653 23.1639 34.3793 22.0057 34.3793 20.5579C34.3793 19.5928 34.5723 18.5311 34.9584 17.3729C35.3444 16.2147 36.02 15.2496 36.8887 14.4774C37.7573 13.7053 38.819 13.3192 40.1702 13.3192C41.5215 13.3192 42.5831 13.8018 43.3553 14.6705C44.2239 15.5391 44.61 16.7938 44.61 18.3381C44.61 19.4963 44.417 20.6545 43.9344 21.7161ZM156.569 6.65961C155.893 6.5631 155.314 6.46658 154.638 6.37007C153.963 6.27355 153.288 6.27355 152.708 6.17703C152.032 6.08052 151.453 6.08052 150.971 6.08052C148.365 6.08052 147.014 6.27355 144.794 6.65961C142.574 7.04568 140.644 7.52826 139.003 7.91432L135.142 32.3329H143.926L147.015 12.6446C147.4 12.5481 149.137 12.2585 149.717 12.2585C150.972 12.2585 152.032 12.355 153.095 12.5481C154.157 12.7411 155.025 12.9341 155.798 13.0306L158.21 7.04664C157.727 6.85264 157.244 6.75613 156.569 6.65961ZM105.512 0L91.1308 32.3329H99.1416L114.295 0H105.512ZM27.2371 6.46658H3.88018L3.01153 12.4506H13.9179L0.0195312 32.3329H23.473L24.3416 26.1559H13.5318L27.2371 6.46658ZM92.9646 9.74813H84.1816L89.7795 32.3329L94.7984 20.751L92.9646 9.74813ZM128.676 7.33523C127.035 6.46658 125.2 6.08052 123.174 6.08052C120.472 6.08052 118.059 6.75613 115.935 8.10736C113.812 9.45858 112.075 11.1959 110.917 13.5123C109.662 15.7321 109.083 18.2416 109.083 20.8475C109.083 22.5848 109.469 24.4186 110.145 26.2524C110.918 28.0862 112.269 29.6305 114.296 30.8852C116.322 32.2364 119.121 32.8155 122.596 32.8155C124.237 32.8155 125.589 32.719 126.747 32.4304C127.809 32.1408 129.257 31.6583 131.09 30.9826L132.345 24.6126C130.415 25.3847 128.774 25.9638 127.422 26.3499C126.072 26.735 124.526 26.929 122.693 26.929C119.218 26.929 117.385 25.0952 117.385 21.5241H133.793C133.986 20.1728 134.178 18.9181 134.178 17.7599C134.178 15.154 133.695 13.0306 132.634 11.1968C131.752 9.52652 130.367 8.17566 128.676 7.33523ZM126.07 16.6973V17.0834H118.155C118.734 15.5391 119.41 14.2844 120.086 13.3192C120.761 12.3541 121.726 11.8715 122.981 11.8715C125.008 11.8715 125.973 13.3192 125.973 16.2147C126.07 16.5043 126.07 16.6008 126.07 16.6973ZM76.8464 7.43174C74.9161 6.46658 72.8892 6.08052 70.6693 6.08052C68.546 6.08052 66.6157 6.46658 64.7819 7.23871C62.9481 8.01084 61.4038 8.976 59.9561 10.3272C58.6048 11.6785 57.5432 13.2227 56.771 14.96C55.9989 16.6973 55.6128 18.5311 55.6128 20.3649C55.6128 22.8743 56.1919 24.9977 57.3501 26.928C58.5083 28.8583 60.1491 30.3061 62.1759 31.3677C64.2028 32.4304 66.3261 32.913 68.739 32.913C70.7659 32.913 72.5997 32.5269 74.337 31.8503C76.0742 31.1757 77.6185 30.113 78.9697 28.8583C80.32 27.6036 81.2852 26.0594 82.0573 24.2256C82.8304 22.3917 83.2155 20.5579 83.2155 18.4346C83.2155 15.7321 82.6364 13.4157 81.4782 11.5819C80.32 9.74813 78.7767 8.3969 76.8464 7.43174ZM73.9509 21.7161C73.4683 22.8743 72.7927 23.743 71.9241 24.5151C71.0554 25.1907 70.0902 25.5768 68.9321 25.5768C67.5808 25.5768 66.4226 25.0942 65.6505 24.129C64.7819 23.1639 64.3958 22.0057 64.3958 20.5579C64.3958 19.5928 64.5888 18.5311 64.9749 17.3729C65.361 16.2147 66.0366 15.2496 66.9052 14.4774C67.7739 13.7053 68.8355 13.3192 70.2833 13.3192C71.6345 13.3192 72.6962 13.8018 73.4683 14.6705C74.337 15.5391 74.723 16.7938 74.723 18.3381C74.6265 19.4963 74.4335 20.6545 73.9509 21.7161Z" fill="#B7C0CC"/>
</g>
<defs>
<clipPath id="clip0_7_118">
<rect width="158.231" height="32.912" fill="white"/>
</clipPath>
</defs>
</svg>
