<svg width="116" height="34" viewBox="0 0 116 34" fill="none" xmlns="http://www.w3.org/2000/svg">
<path d="M8.45 26.42C6.91 26.42 5.55667 26.175 4.39 25.685C3.22333 25.1717 2.29 24.4717 1.59 23.585C0.89 22.6983 0.47 21.6717 0.33 20.505H4.845C4.985 21.1817 5.35833 21.765 5.965 22.255C6.595 22.7217 7.4 22.955 8.38 22.955C9.36 22.955 10.0717 22.7567 10.515 22.36C10.9817 21.9633 11.215 21.5083 11.215 20.995C11.215 20.2483 10.8883 19.7467 10.235 19.49C9.58167 19.21 8.67167 18.9417 7.505 18.685C6.75833 18.5217 6 18.3233 5.23 18.09C4.46 17.8567 3.74833 17.565 3.095 17.215C2.465 16.8417 1.95167 16.375 1.555 15.815C1.15833 15.2317 0.96 14.52 0.96 13.68C0.96 12.14 1.56667 10.845 2.78 9.795C4.01667 8.745 5.74333 8.22 7.96 8.22C10.0133 8.22 11.6467 8.69833 12.86 9.655C14.0967 10.6117 14.8317 11.93 15.065 13.61H10.83C10.5733 12.3267 9.605 11.685 7.925 11.685C7.085 11.685 6.43167 11.8483 5.965 12.175C5.52167 12.5017 5.3 12.91 5.3 13.4C5.3 13.9133 5.63833 14.3217 6.315 14.625C6.99167 14.9283 7.89 15.2083 9.01 15.465C10.2233 15.745 11.3317 16.06 12.335 16.41C13.3617 16.7367 14.1783 17.2383 14.785 17.915C15.3917 18.5683 15.695 19.5133 15.695 20.75C15.7183 21.8233 15.4383 22.7917 14.855 23.655C14.2717 24.5183 13.4317 25.195 12.335 25.685C11.2383 26.175 9.94333 26.42 8.45 26.42ZM25.6487 26.42C24.1553 26.42 22.9303 26.1867 21.9737 25.72C21.017 25.23 20.3053 24.5883 19.8387 23.795C19.372 23.0017 19.1387 22.1267 19.1387 21.17C19.1387 19.56 19.7687 18.2533 21.0287 17.25C22.2887 16.2467 24.1787 15.745 26.6987 15.745H31.1087V15.325C31.1087 14.135 30.7703 13.26 30.0937 12.7C29.417 12.14 28.577 11.86 27.5737 11.86C26.6637 11.86 25.8703 12.0817 25.1937 12.525C24.517 12.945 24.097 13.575 23.9337 14.415H19.5587C19.6753 13.155 20.0953 12.0583 20.8187 11.125C21.5653 10.1917 22.522 9.48 23.6887 8.99C24.8553 8.47667 26.162 8.22 27.6087 8.22C30.082 8.22 32.0303 8.83833 33.4537 10.075C34.877 11.3117 35.5887 13.0617 35.5887 15.325V26H31.7737L31.3537 23.2C30.8403 24.1333 30.117 24.9033 29.1837 25.51C28.2737 26.1167 27.0953 26.42 25.6487 26.42ZM26.6637 22.92C27.947 22.92 28.9387 22.5 29.6387 21.66C30.362 20.82 30.817 19.7817 31.0037 18.545H27.1887C25.9987 18.545 25.147 18.7667 24.6337 19.21C24.1203 19.63 23.8637 20.155 23.8637 20.785C23.8637 21.4617 24.1203 21.9867 24.6337 22.36C25.147 22.7333 25.8237 22.92 26.6637 22.92ZM47.0389 26.42C45.4989 26.42 44.1455 26.175 42.9789 25.685C41.8122 25.1717 40.8789 24.4717 40.1789 23.585C39.4789 22.6983 39.0589 21.6717 38.9189 20.505H43.4339C43.5739 21.1817 43.9472 21.765 44.5539 22.255C45.1839 22.7217 45.9889 22.955 46.9689 22.955C47.9489 22.955 48.6605 22.7567 49.1039 22.36C49.5705 21.9633 49.8039 21.5083 49.8039 20.995C49.8039 20.2483 49.4772 19.7467 48.8239 19.49C48.1705 19.21 47.2605 18.9417 46.0939 18.685C45.3472 18.5217 44.5889 18.3233 43.8189 18.09C43.0489 17.8567 42.3372 17.565 41.6839 17.215C41.0539 16.8417 40.5405 16.375 40.1439 15.815C39.7472 15.2317 39.5489 14.52 39.5489 13.68C39.5489 12.14 40.1555 10.845 41.3689 9.795C42.6055 8.745 44.3322 8.22 46.5489 8.22C48.6022 8.22 50.2355 8.69833 51.4489 9.655C52.6855 10.6117 53.4205 11.93 53.6539 13.61H49.4189C49.1622 12.3267 48.1939 11.685 46.5139 11.685C45.6739 11.685 45.0205 11.8483 44.5539 12.175C44.1105 12.5017 43.8889 12.91 43.8889 13.4C43.8889 13.9133 44.2272 14.3217 44.9039 14.625C45.5805 14.9283 46.4789 15.2083 47.5989 15.465C48.8122 15.745 49.9205 16.06 50.9239 16.41C51.9505 16.7367 52.7672 17.2383 53.3739 17.915C53.9805 18.5683 54.2839 19.5133 54.2839 20.75C54.3072 21.8233 54.0272 22.7917 53.4439 23.655C52.8605 24.5183 52.0205 25.195 50.9239 25.685C49.8272 26.175 48.5322 26.42 47.0389 26.42ZM58.2525 33.7V8.64H62.2425L62.7325 11.125C63.2925 10.355 64.0275 9.67833 64.9375 9.095C65.8709 8.51167 67.0725 8.22 68.5425 8.22C70.1759 8.22 71.6342 8.61667 72.9175 9.41C74.2009 10.2033 75.2159 11.2883 75.9625 12.665C76.7092 14.0417 77.0825 15.605 77.0825 17.355C77.0825 19.105 76.7092 20.6683 75.9625 22.045C75.2159 23.3983 74.2009 24.4717 72.9175 25.265C71.6342 26.035 70.1759 26.42 68.5425 26.42C67.2359 26.42 66.0925 26.175 65.1125 25.685C64.1325 25.195 63.3392 24.5067 62.7325 23.62V33.7H58.2525ZM67.5975 22.5C69.0209 22.5 70.1992 22.0217 71.1325 21.065C72.0659 20.1083 72.5325 18.8717 72.5325 17.355C72.5325 15.8383 72.0659 14.59 71.1325 13.61C70.1992 12.63 69.0209 12.14 67.5975 12.14C66.1509 12.14 64.9609 12.63 64.0275 13.61C63.1175 14.5667 62.6625 15.8033 62.6625 17.32C62.6625 18.8367 63.1175 20.085 64.0275 21.065C64.9609 22.0217 66.1509 22.5 67.5975 22.5ZM83.4996 5.945C82.6829 5.945 82.0062 5.7 81.4696 5.21C80.9562 4.72 80.6996 4.10167 80.6996 3.355C80.6996 2.60833 80.9562 2.00167 81.4696 1.535C82.0062 1.045 82.6829 0.799999 83.4996 0.799999C84.3162 0.799999 84.9812 1.045 85.4946 1.535C86.0312 2.00167 86.2996 2.60833 86.2996 3.355C86.2996 4.10167 86.0312 4.72 85.4946 5.21C84.9812 5.7 84.3162 5.945 83.4996 5.945ZM81.2596 26V8.64H85.7396V26H81.2596ZM90.4156 26V0.799999H94.8956V15.675L101.056 8.64H106.376L99.2706 16.55L107.531 26H101.931L94.8956 17.285V26H90.4156ZM112.233 26.245C111.417 26.245 110.74 25.9883 110.203 25.475C109.69 24.9617 109.433 24.3433 109.433 23.62C109.433 22.8733 109.69 22.2433 110.203 21.73C110.74 21.2167 111.417 20.96 112.233 20.96C113.05 20.96 113.715 21.2167 114.228 21.73C114.765 22.2433 115.033 22.8733 115.033 23.62C115.033 24.3433 114.765 24.9617 114.228 25.475C113.715 25.9883 113.05 26.245 112.233 26.245Z" fill="black"/>
</svg>
